<?xml version="1.0" encoding="UTF-8"?><svg width="48" height="20" viewBox="0 0 48 20" fill="none" xmlns="http://www.w3.org/2000/svg">
<path d="M28.4437 3.70996H21.4437V16.2892H28.4437V3.70996Z" fill="#FF5F00"/>
<path d="M21.8882 10C21.8871 8.78853 22.1617 7.59269 22.691 6.50301C23.2204 5.41332 23.9908 4.45836 24.9438 3.7104C23.7636 2.78277 22.3463 2.20588 20.8537 2.04569C19.3612 1.8855 17.8537 2.14845 16.5036 2.80451C15.1534 3.46056 14.0151 4.48325 13.2187 5.75567C12.4223 7.02809 12 8.4989 12 10C12 11.5011 12.4223 12.9719 13.2187 14.2443C14.0151 15.5167 15.1534 16.5394 16.5036 17.1955C17.8537 17.8516 19.3612 18.1145 20.8537 17.9543C22.3463 17.7941 23.7636 17.2172 24.9438 16.2896C23.9908 15.5416 23.2204 14.5867 22.6911 13.497C22.1617 12.4073 21.8871 11.2115 21.8882 10Z" fill="#EB001B"/>
<path d="M37.8871 10C37.8872 11.5011 37.4649 12.9719 36.6685 14.2443C35.8722 15.5167 34.7339 16.5394 33.3838 17.1955C32.0337 17.8515 30.5262 18.1145 29.0337 17.9543C27.5412 17.7941 26.1239 17.2172 24.9437 16.2896C25.8959 15.5409 26.6656 14.5858 27.1949 13.4963C27.7242 12.4067 27.9992 11.2113 27.9992 10C27.9992 8.78872 27.7242 7.59326 27.1949 6.50374C26.6656 5.41423 25.8959 4.45911 24.9437 3.7104C26.1239 2.78276 27.5412 2.20588 29.0337 2.04569C30.5262 1.8855 32.0337 2.14846 33.3838 2.80452C34.7339 3.46059 35.8722 4.48328 36.6685 5.7557C37.4649 7.02812 37.8872 8.49892 37.8871 10Z" fill="#F79E1B"/>
<path d="M37.1239 14.957V14.6995H37.2277V14.647H36.9633V14.6995H37.0671V14.957H37.1239ZM37.6373 14.957V14.6465H37.5563L37.463 14.8601L37.3698 14.6465H37.2886V14.957H37.3459V14.7228L37.4333 14.9247H37.4927L37.5801 14.7223V14.957H37.6373Z" fill="#F79E1B"/>
</svg>
