<?xml version="1.0" encoding="UTF-8"?><svg width="48" height="20" viewBox="0 0 48 20" fill="none" xmlns="http://www.w3.org/2000/svg">
<g id="Icons / Payment / Visa">
<path id="Vector" d="M30.6588 2.7998C27.5346 2.7998 24.7427 4.4309 24.7427 7.44446C24.7427 10.9004 29.6943 11.1391 29.6943 12.8753C29.6943 13.6063 28.8626 14.2607 27.442 14.2607C25.426 14.2607 23.9192 13.3464 23.9192 13.3464L23.2745 16.3874C23.2745 16.3874 25.0102 17.1598 27.3148 17.1598C30.7305 17.1598 33.4182 15.4485 33.4182 12.3835C33.4182 8.73164 28.4461 8.50002 28.4461 6.88858C28.4461 6.31584 29.1288 5.6884 30.5453 5.6884C32.1435 5.6884 33.4475 6.35342 33.4475 6.35342L34.0785 3.41633C34.0785 3.41633 32.6597 2.7998 30.6588 2.7998ZM2.07567 3.02149L2 3.46482C2 3.46482 3.31436 3.7071 4.49813 4.19044C6.02232 4.74464 6.13094 5.0673 6.38762 6.0694L9.18486 16.9312H12.9347L18.7115 3.02149H14.9703L11.2584 12.4787L9.74369 4.46231C9.60478 3.54486 8.90113 3.02149 8.03985 3.02149H2.07567ZM20.2159 3.02149L17.281 16.9311H20.8486L23.7731 3.02145L20.2159 3.02149ZM40.1132 3.02149C39.2529 3.02149 38.7971 3.48541 38.4627 4.29607L33.236 16.9311H36.9772L37.701 14.8252H42.2588L42.699 16.9311H46L43.1202 3.02149H40.1132ZM40.5997 6.77944L41.7087 11.999H38.7377L40.5997 6.77944Z" fill="#1434CB"/>
</g>
</svg>
